# xmcd CD database file
#
# Track frame offsets:
#	150
#	16735
#	28265
#	36905
#	50560
#	74915
#	90098
#	109838
#	125993
#	136720
#	145115
#	154483
#
# Disc length: 2258 seconds
#
# Revision: 1
# Processed by: cddbd v1.5.2PL0 Copyright (c) Steve Scherf et al.
# Submitted via: CDex 1.70beta2
#
DISCID=ab08d00c
DTITLE=Faron Young - Live in Branson, Mo, USA
DYEAR=1993
DGENRE=Country
TTITLE0=Wine Me Up
TTITLE1=Sweet Dreams
TTITLE2=Live Fast, Love Hard, Die Young
TTITLE3=This Little Girl Of Mine
TTITLE4=Leavin' and Sayin' Goodbye
TTITLE5=Funny How Times Slips Away
TTITLE6=I Miss You Already
TTITLE7=After The Lovin'
TTITLE8=Goin' Steady
TTITLE9=Alone With You
TTITLE10=Hello Walls
TTITLE11=It's Four In The Morning
EXTD=YEAR: 1993
EXTT0=
EXTT1=
EXTT2=
EXTT3=
EXTT4=
EXTT5=
EXTT6=
EXTT7=
EXTT8=
EXTT9=
EXTT10=
EXTT11=
PLAYORDER=
